<?xml version="1.0" encoding="UTF-8"?>
<svg id="Layer_2" xmlns="http://www.w3.org/2000/svg" version="1.1"
  xmlns:xlink="http://www.w3.org/1999/xlink" viewBox="0 0 477 232">
  <!-- Generator: Adobe Illustrator 29.1.0, SVG Export Plug-In . SVG Version: 2.1.0 Build 142)  -->
  <defs>
    <style>
      .st0 {
      fill: #e83634;
      }

      .st1 {
      fill: #efd42e;
      }

      .st2 {
      fill: #b32826;
      }

      .st3 {
      fill: #6b9c3a;
      }

      .st4 {
      fill: #231f20;
      }

      .st5 {
      fill: #73482b;
      }

      .st6 {
      fill: none;
      }

      .st7 {
      fill: #19542b;
      }

      .st8 {
      fill: #17542a;
      }

      .st9 {
      fill: #84c449;
      }

      .st10 {
      fill: #361717;
      }

      .st11 {
      fill: #00004d;
      }

      .st12 {
      fill: #371616;
      }

      .st13 {
      fill: url(#linear-gradient);
      }

      .st14 {
      fill: #85c449;
      }

      .st15 {
      fill: #cea92a;
      }
    </style>
    <linearGradient id="linear-gradient" x1="96.8" y1="60.66" x2="172.44" y2="24.97"
      gradientUnits="userSpaceOnUse">
      <stop offset="0" stop-color="#8d5938" />
      <stop offset=".41" stop-color="#8d5938" />
    </linearGradient>
  </defs>
  <polygon class="st7"
    points="42.02 42.88 57.55 41.51 69.17 49.06 66.37 54.49 49.5 53.6 42.02 42.88" />
  <polygon class="st7"
    points="47.18 70.31 56.42 66.4 75.97 69.12 72.24 76.02 55.6 79.73 47.18 70.31" />
  <path class="st9"
    d="M433.47,74.52l-23.97,19.23c-4.05,1.93-40.33-23.42-76.25-12.64,33.47-20.49,75.27-28.52,100.22-6.59Z" />
  <path class="st9"
    d="M355.8,65.83c10.77-22.95,44.84-41,77.67-26.06l-15.23,15.64c-37.15-4.86-50.94,3.66-62.44,10.42Z" />
  <path class="st8"
    d="M355.14,66.34c35.59-11.66,62.49-9.74,82.81,8.18l-26.9,21.16c-23.8-26.32-55.22-21.14-78.07-14.57,29.03-4.81,55.99-1.86,75.96,27.43l44.04-32.18c-7.11-9.15-16.06-14.88-25.58-18.4-29.47-10.9-64.17.27-72.27,8.38Z" />
  <path class="st8"
    d="M451.66,34.12l-24.16,24.99-9.26-3.7,16.71-17.16c-36.33-16.27-66.13.84-95.03,28.88,15.79-19.8,46.18-60.73,111.74-33Z" />
  <path class="st14"
    d="M433.94,39.92c-31.83-14.01-64.65,2.74-76.15,24.72-.22.42-.43.84-.63,1.26.35-.12.69-.23,1.03-.33,14.23-5.13,37.06-9.05,54.93-4.51,20.82-21.14,11.45-11.59,20.82-21.14ZM393.7,43.57c2.45-3.37,8.15-3.21,10.46-3.15,1.85.05,8.46.23,8.94,2.52.33,1.54-2.17,3.74-4.66,4.53-2.83.9-3.61-.68-9.45-1-3.25-.19-5.46.17-5.92-.89-.31-.71.37-1.65.63-2.01h0Z" />
  <path class="st14"
    d="M433.61,74.85c-30.85-25.14-71.93-10.73-100.48,6.59,35.4-10.6,59.77-4.68,76.58,12.54l23.9-19.14Z" />
  <g id="Layer_3">
    <path class="st7"
      d="M428.89,58.3l23.38-24.17c-65.56-27.73-95.95,13.2-111.74,33,28.9-28.04,58.7-45.14,95.03-28.88l-1.62,1.67c1.62-1.67-15.7,15.49-15.7,15.49-23.6-5.34-51.75,1.12-63.1,10.93-1.83,1.24,4.84-1.79,15.62-4.34,12.22-2.88,29.71-5.14,46.11.12,13.06,2.67,25.96,17.56,21.68,12.39l-26.9,21.16c-24.27-27.96-60.69-18.89-77.57-14.71-.05.03-.09.06-.14.08.08,0,.15-.02.23-.03,28.26-.64,54.96,2.77,75.37,27.52l44.05-32.17c-6.9-8.88-15.52-14.53-24.71-18.07h0ZM393.7,43.57c2.45-3.37,8.15-3.21,10.46-3.15,1.85.05,8.46.23,8.94,2.52.33,1.54-2.17,3.74-4.66,4.53-2.83.9-3.61-.68-9.45-1-3.25-.19-5.46.17-5.92-.89-.31-.71.37-1.65.63-2.01h0ZM381.67,70.9c2.44-3.37,8.15-3.21,10.45-3.15,1.86.05,8.46.23,8.95,2.52.32,1.54-2.18,3.75-4.66,4.53-2.84.91-3.62-.68-9.45-1-3.26-.18-5.46.17-5.92-.89-.32-.71.36-1.64.63-2.01h0Z" />
  </g>
  <path class="st12"
    d="M188.39,51.96l4.32-11.98c2.7-.7,4.6-.14,5.44,2.09l-5.6,11.17c-1.62,1.15-3.01.77-4.16-1.28Z" />
  <path class="st10"
    d="M220.24,32.28c2.27,1.07,4.18-.48,5.91-3.43-3.73-4.43-8.16-7.91-12.8-11.1-3.78,1.33-5.42,2.88-3.04,4.83,3.58.51,6.65,3.35,9.93,9.7h0Z" />
  <path class="st4" d="M136.27,85.39" />
  <path class="st4" d="M150.8,69.12" />
  <path class="st6"
    d="M124.97,63.81c-.49-1.82,12.25-17.02,14.53-16.28,1.69,1.31-14.22,18.34-14.53,16.28Z" />
  <path class="st4" d="M156.46,42.88" />
  <path class="st4"
    d="M172.92,81.72c-5.24-15.59-10.61-28.41-16.46-38.85,8.9-4.36,17.42-3.25,25.81-.07-9.44-.97-14.73,7.21-9.35,38.92h0Z" />
  <path class="st14"
    d="M23.96,59.92L1.51,36.73c62.95-26.61,92.14,12.67,107.3,31.67-27.75-26.91-56.37-43.32-91.25-27.71l1.56,1.6c11.46-5.04,23.06-5.93,33.66-3.96,17.67,3.28,32.56,14.5,39.47,27.69.21.4-.06.99-.38.89-.86-.27-1.72-.53-2.57-.78-3.77-1.12-7.44-2.08-11-2.86-26.44-5.81-47.25-2.19-63.61,12.23l25.83,20.31c.56-.61,1.11-1.22,1.69-1.79-.08,0-.14-.03-.2-.06l-23.02-18.45c23.9-21,63.91-13.38,96.02,6.19.05.03.09.06.13.08-.08,0-.14-.02-.22-.03-26.83-1.49-51.98,2.46-72.37,26.41L.25,77.29c6.63-8.52,14.9-13.94,23.73-17.34l-.02-.03ZM64.9,49.7c-1.69-4.03-7.41-5.08-9.72-5.52-1.86-.34-8.48-1.58-9.48.7-.67,1.53,1.33,4.35,3.63,5.71,2.62,1.54,3.75.07,9.64.99,3.28.5,5.4,1.35,6.1.34.47-.67,0-1.79-.18-2.22h.01ZM69.3,72.01c-2.34-3.23-7.83-3.08-10.03-3.02-1.79.05-8.12.22-8.59,2.42-.31,1.48,2.09,3.6,4.47,4.35,2.73.87,3.48-.65,9.07-.96,3.13-.17,5.24.16,5.68-.85.31-.68-.35-1.57-.6-1.93h0Z" />
  <path class="st14"
    d="M108.73,76.02c-8.77-5.23-18.84-9.55-30.45-12.77-2.83-12.02-14.33-19.4-28.78-25.44,13.29.26,36.18,10.65,59.23,38.21h0Z" />
  <path class="st11" d="M103.58,131.25l271.34.02-271.34-.02h0Z" />
  <path class="st11"
    d="M297.52,31.55l-18.98-12.15c-4.85-3.11-11.29-1.67-14.37,3.21l-38.46,60.62-2.28,3.6-2.3,3.63-4.72,7.44s0,.02-.02.03c-2.64,4.19-1.93,9.56,1.42,12.95.53.54,1.13,1.04,1.79,1.46l.44.28,18.53,11.87c4.86,3.11,11.29,1.67,14.38-3.2l24.13-38.05,23.61-37.23c3.09-4.88,1.67-11.34-3.18-14.45h.01ZM249.18,104.1c-.03.4-.09.79-.17,1.17,0,.04,0,.09-.02.13-.03.14-.06.27-.1.4-.93,3.84-3.92,6.83-7.73,7.77-.13.04-.26.07-.39.1-.05,0-.09.02-.14.02-.39.08-.79.14-1.2.17-.32.04-.63.05-.94.05h-.02c-1.35,0-2.64-.25-3.83-.72-.29-.1-.56-.22-.83-.35-2.2-1.07-3.97-2.85-5.04-5.06-.13-.27-.25-.55-.35-.84-.47-1.2-.71-2.49-.71-3.84,0-.22,0-.44.02-.66,0-.15.02-.3.04-.45.03-.36.09-.72.16-1.07.13-.72.34-1.44.62-2.17,1.01-2.56,3.05-4.61,5.59-5.62,1.08-.44,2.17-.69,3.22-.79.13-.02.27-.03.4-.04.24,0,.47-.02.7-.02,1.3,0,2.55.23,3.7.66.33.12.65.26.96.41.32.15.62.32.92.5.3.19.58.38.85.59.83.62,1.57,1.35,2.18,2.19.21.27.4.56.58.86s.35.61.5.93c.15.31.29.64.41.97.43,1.16.65,2.41.65,3.71,0,.33-.02.67-.05,1.01h.02Z" />
  <path class="st11"
    d="M407.71,120.76c0,5.05-4.1,9.15-9.16,9.15H79.15c-5.06,0-9.16-4.1-9.16-9.15v-28.42c0-5.05,154.01-9.15,154.01-9.15l-7.34,11.39-1.6,2.48c-2.85,4.43-2.33,10.07.92,13.89h-.59l.86.32c.67.72,1.43,1.38,2.3,1.94l19.26,12.41c5.42,3.5,12.65,1.94,16.14-3.49l25.11-38.94,128.65,37.57h0Z" />
  <path class="st0"
    d="M225.03,81.72s-4.83-21.97-14.18-28.64c-5.68-.86-11.38-.97-17.11-.34-1.03.29,1.62,1.93,7.5,4.77-.68,1.54-26.74-9.39-22.75-9.52,5.06,2.23,8.92,3.65,9.5,2.87-2.31-4.86-4.03-6.55-5.73-8.06-10.12-4.18-18.39-3.23-25.81.07l16.46,38.85h52.12Z" />
  <path class="st0" d="M227.72,77.32l-2.69,4.4-14.18-28.64c6.29,3.7,13.38,8.57,16.87,24.24Z" />
  <path class="st11"
    d="M407.71,109.41v11.36c-.83,6.16-4.44,8.44-9.16,9.15h-30.28c-6.55-6.52,4.64-16.98,39.44-20.51h0Z" />
  <path class="st11"
    d="M279.06,83.19c13.89,19.34,50.7,33.29,128.65,37.57v-11.36c-17.96-21.69-44.2-27.09-73.63-26.21h-55.02Z" />
  <path class="st6"
    d="M205.25,52.46l-7.34,11.39-.26,3.36s0-.02.02-.03l4.76-7.47h-1.49c1.61-1.84,2.87-3.03,3.81-3.64l2.3-3.61h-1.8ZM234.54,90.67c-3.12,4.89-9.61,6.33-14.51,3.21l-18.7-11.92-3.83-1.42c.67.72,1.43,1.38,2.3,1.94l19.26,12.41c5.42,3.5,12.65,1.94,16.14-3.49M260.31,52.46h-1.42M198.1,61.38l-.19,2.47-.26,3.36-.27,3.52" />
  <path class="st1"
    d="M228.82,75.54l20.26-32.79c-4.68-1.16-8.3-5.75-11.21-12.66-3.06-7.04-8.37-6.97-14.3-4.91,2.04,0,3.8.43,3.82,3.68-.87,2.78-4.12,5.48-8.43,5.03-1.77-.38-1.96-2.02-1.22-4.4-2.39,1.1-3.87,4.16-4.29,9.5l-.14,13.88c8.02,4.81,13.3,12.27,15.52,22.68h-.01Z" />
  <path class="st14"
    d="M303.75,50.1l-3.09-.63-13.43,20.6,4.77,2.91c-3.47,1.05-6.55,2.04-8.32,2.84l-3.47,5.89h24.76l-1.23-31.62h.01Z" />
  <!-- Here -->
  <path class="st11" 
    d="M103.58,131.25l22.17,100.49h228l21.18-100.47-271.35-.02h0ZM146.18,220.56l-1.18.18c-1.95.3-3.78-1.04-4.08-3l-10.85-71.23c-.3-1.96,1.04-3.79,3-4.09l1.18-.18c1.95-.29,3.78,1.05,4.08,3.01l10.85,71.23c.3,1.96-1.04,3.78-3,4.08ZM208.91,221l-1.19.07c-1.98.12-3.67-1.39-3.79-3.37l-4.28-71.92c-.11-1.98,1.39-3.68,3.37-3.79l1.19-.07c1.97-.12,3.67,1.39,3.79,3.36l4.27,71.93c.12,1.97-1.39,3.67-3.36,3.79ZM274.7,217.7c-.11,1.98-1.81,3.49-3.79,3.37l-1.18-.07c-1.98-.12-3.49-1.82-3.37-3.79l4.28-71.93c.11-1.97,1.81-3.48,3.79-3.36l1.18.07c1.98.11,3.49,1.81,3.37,3.79l-4.28,71.92ZM347.39,146.6l-11.53,71.12c-.32,1.96-2.16,3.29-4.11,2.97l-1.18-.19c-1.95-.32-3.28-2.16-2.96-4.11l11.53-71.13c.32-1.95,2.16-3.28,4.11-2.96l1.18.19c1.95.31,3.28,2.15,2.96,4.11Z" />
  <path class="st4" d="M99.98,83.19" />
  <!-- Here -->
  <path class="st11" d="M115.12,83.19h108.87l-154.01,9.15v-1.67c1.18-3.04,15.78-8.11,45.14-7.48Z" />
  <path class="st13"
    d="M140.43,81.72h30.7C159.8,54.75,132.22-14.62,100.18,2.99c-12.65,6.02-16.2,18.27-9,35.5,7.27,16.12,15.25,30.28,23.66,43.23h23.33c3.48-4.56,9.55-10.27,12.56-12.6,2.4.27-5.19,8.04-10.3,12.6h0ZM111.91,42.42h0c-.14,0-.24-.06-.29-.2-1.81-.5,13.29-17.03,14.53-16.28,1.85,1.47-11.92,16.48-14.23,16.48h0ZM132.95,56.89c-.65.71-1.31,1.41-1.95,2.08-3.14,3.25-5.97,5.7-6.1,4.84-.18-.68,1.46-3.2,3.71-6.07.64-.8,1.32-1.63,2.01-2.45,3.54-4.15,7.61-8.15,8.81-7.76.84.65-2.69,5.21-6.48,9.36Z" />
  <path class="st14"
    d="M320.85,81.72l-.44-7.05c-4.04-.76-6.36-2.12-8.95-3.38,2.52.63,5.1,1.23,9.17,1.19v-17.77c-2.68-.32-4.98-2.38-7.27-4.55,2.26,1.26,4.52,2.52,7.34,2.7.06-11.61,3.03-23.04,7.19-27.65-2.95,3.78-5.23,31.56-4.32,39.02,2.54-.34,5.68-2.57,9.01-5.42-2.36,3.6-5.11,6.65-8.68,8.51-.08,8.88.28,14.15,1.24,14.39h4.8c15.31-9.19,33.88-19.13,38.04-19-10.17,1.37-14.8.43-15.25-2.25,1.39-4.44,11.61-3.78,16.5-14.48.48-6.44-8.98-7.4-27.75-2.13-7.58-1.62,3.43-13.07,3.25-30.12-2.06-6.51-5.83-7.46-10.25-6.25-14.7,4.04-26.19,15.41-30.75,42.61-2.02,4.12-14.04,15.92-11.75,22.89-4.7,1.36-10.58,6.15-10.33,8.73h39.2Z" />
  <path class="st7"
    d="M368.02,62.81c-7.53,2.14-14.11,5.05-20.05,8.48,5.6-4.23,10.55-7.76,13.44-9.11l6.61.62" />
  <path class="st7"
    d="M1.51,36.73l22.45,23.19c-11.56,4.58-18.73,10.61-23.71,17.37l42.3,30.87c14.75-17.85,36.58-28.84,72.29-26.44-33.34-5.03-59.35-1.2-74.32,14.09l-25.83-20.31c24.94-20.58,56.53-19.61,94.04.52-34.46-22.4-52.51-20.88-74.66-18.2l-16.51-17.13c25.31-12.18,53.61-7.41,86.46,23.18l-2.4-4.34C64.98,15.91,25.74,26.38,1.51,36.73Z" />
  <path class="st15"
    d="M249.08,42.75c-5.91-2.41-9.63-7.34-11.86-13.98,1.5,17.02-2.45,32.23-8.4,46.77l20.26-32.79Z" />
  <path class="st3"
    d="M327.89,25.21c-1.82,13.92-2.54,26.83-1.27,37.93l-3.05,1.09c-.66-18.61,1.18-30.56,4.32-39.02Z" />
  <path class="st3"
    d="M332.58,58.81c-2.02,3.16-4.52,6.15-8.68,8.51-.19,6.61.1,11.79,1.24,14.39.3-13.98,4.27-14.31,7.44-22.9Z" />
  <path class="st3" d="M343.29,25.18c-8.53,16.04-9.99,23.21.1,18.14-5.52,2.36-5.4-3.49-.1-18.14Z" />
  <path class="st2"
    d="M210.85,53.08c8.61,6.26,6.67,16.19-2.47,28.64h16.65s2.69-4.4,2.69-4.4c-3.8-15.81-10.21-20.57-16.87-24.24Z" />
  <path class="st5"
    d="M126.14,25.94c.41,4.91-5.85,26.7-14.24,16.48,8.26-6.46,15.41-14.89,14.24-16.48Z" />
  <path class="st5" d="M124.9,63.81c4.62,5.5,10.4,3.85,14.53-16.28.2,1.45-13.16,17.99-14.53,16.28Z" />
  <path class="st5" d="M150.73,69.12c1.9.77-3.19,6.03-10.3,12.6h5.15c4.29-7.34,6-11.54,5.15-12.6Z" />
  <path class="st5"
    d="M93.2,42.88c13.77,19.26,26.82,35.26,37.15,38.84h-15.51c-6.87-10.01-14.2-23.92-21.64-38.84Z" />
  <path class="st3"
    d="M357.16,56.8c-19.25,8.79-14.13,14.92-9.19,14.49,2.48-1.94,5.06-3.8,7.74-5.6l1.77-3.08c-6.18-1.12-6.65-2.93-.32-5.81Z" />
</svg>